C:\GBW_MyPrograms\PredSim\Subjects\Ines_test\Jullie_lengte\Jullie_lengte_v1.mot
version=1
nRows=9
nColumns=31
inDegrees=yes
endheader
                time	         pelvis_tilt	           pelvis_tx	           pelvis_ty	       hip_flexion_r	        knee_angle_r	       ankle_angle_r	       hip_flexion_l	        knee_angle_l	       ankle_angle_l	    lumbar_extension	          arm_flex_r	          arm_flex_l	hamstrings_r/activation	bifemsh_r/activation	glut_max_r/activation	iliopsoas_r/activation	rect_fem_r/activation	  vasti_r/activation	gastroc_r/activation	 soleus_r/activation	tib_ant_r/activation	hamstrings_l/activation	bifemsh_l/activation	glut_max_l/activation	iliopsoas_l/activation	rect_fem_l/activation	  vasti_l/activation	gastroc_l/activation	 soleus_l/activation	tib_ant_l/activation	
          0.00000000	         -0.87903702	          0.00000000	          0.68701907	         12.89602607	         -9.25868134	          4.12273425	         -5.55346925	        -22.96291114	        -19.40989910	         -3.16253861	         -4.66914043	         -4.66922368	          0.40860450	          0.42714986	          0.61293433	          0.35292008	          0.58634646	          0.55036677	          0.09563781	          0.07392880	          0.77262153	          0.44927053	          0.58202792	          0.29693677	          0.72610330	          0.50727612	          0.24990498	          0.47933880	          0.35637806	          0.59993740	
          0.00765739	         -0.90623632	          0.00805439	          0.68447411	         11.48407591	         -8.08911805	          4.70128658	         -5.39426544	        -24.46124423	        -19.23735987	         -2.89256370	         -5.01072708	         -5.01081183	          0.41352937	          0.41917496	          0.64480480	          0.32850743	          0.59260794	          0.56376270	          0.08802477	          0.07090484	          0.78949706	          0.45434573	          0.57900309	          0.28379715	          0.71026538	          0.50702402	          0.24125812	          0.47317727	          0.33532452	          0.62461750	
          0.01531477	         -0.93574400	          0.01614187	          0.68165295	          9.96972380	         -6.70915309	          4.82404166	         -5.16547986	        -26.07917537	        -19.03684044	         -2.61400165	         -5.35638589	         -5.35647337	          0.41433724	          0.41605987	          0.64683655	          0.31851955	          0.58679900	          0.56996798	          0.08731177	          0.07761043	          0.81380707	          0.45294068	          0.57947192	          0.29130188	          0.71658860	          0.50850553	          0.22570367	          0.47058070	          0.31534979	          0.63719530	
          0.02297216	         -0.96524975	          0.02412123	          0.67884522	          8.54650974	         -5.35432574	          4.28551765	         -4.86183970	        -27.78414272	        -18.83111337	         -2.35311570	         -5.67531531	         -5.67540413	          0.40811954	          0.43140164	          0.63186525	          0.32409135	          0.58350101	          0.55562643	          0.10461045	          0.09108123	          0.79239150	          0.45219024	          0.58872224	          0.27671672	          0.72821494	          0.50857910	          0.20972365	          0.46679815	          0.29090731	          0.65940223	
          0.03062955	         -0.98838547	          0.03186395	          0.67635461	          7.39784613	         -4.43697078	          3.61889160	         -4.46827177	        -29.55767032	        -18.56850518	         -2.13824661	         -5.93868387	         -5.93877408	          0.40128189	          0.44219303	          0.61013598	          0.36488521	          0.58411469	          0.54738961	          0.14634324	          0.11044764	          0.78623718	          0.44637600	          0.59167215	          0.27934209	          0.72851424	          0.51822958	          0.19205999	          0.46724992	          0.27393592	          0.64769524	
          0.03828693	         -1.00442211	          0.03932909	          0.67438731	          6.55591193	         -4.02707306	          2.91644118	         -3.98610291	        -31.30644072	        -18.12621053	         -1.97597573	         -6.13763695	         -6.13772806	          0.38722151	          0.44507660	          0.58739042	          0.39997710	          0.59950775	          0.54843815	          0.19568817	          0.17461852	          0.71673333	          0.44052823	          0.59771357	          0.28677088	          0.74064289	          0.52581356	          0.17876018	          0.46256722	          0.25443765	          0.67410004	
          0.04594432	         -1.01661947	          0.04652932	          0.67305375	          5.95456153	         -4.05061890	          2.56543827	         -3.40710411	        -32.93983853	        -17.59487057	         -1.85921173	         -6.27569932	         -6.27579031	          0.37895000	          0.45167392	          0.58013033	          0.42626797	          0.60578509	          0.54605622	          0.20829036	          0.16216108	          0.73758046	          0.43331822	          0.60396526	          0.28492234	          0.74732573	          0.52862290	          0.16856963	          0.45818313	          0.23626948	          0.68125821	
          0.05360171	         -1.02808757	          0.05348877	          0.67238733	          5.47614358	         -4.29451063	          2.53087016	         -2.69819871	        -34.50065432	        -16.98472127	         -1.77949004	         -6.35894031	         -6.35903136	          0.37249300	          0.45636041	          0.57599476	          0.44550929	          0.60625125	          0.54496521	          0.23364408	          0.18871006	          0.70917607	          0.43264914	          0.61375396	          0.27733252	          0.74308581	          0.52789207	          0.16145314	          0.45397531	          0.21861662	          0.69165844	
          0.06125909	         -1.03785410	          0.06024315	          0.67228932	          5.00594035	         -4.50814431	          2.39929117	         -1.83462904	        -36.07294155	        -16.33603193	         -1.73191375	         -6.39531094	         -6.39540070	          0.36863670	          0.45965679	          0.56578776	          0.45195393	          0.61008364	          0.54191870	          0.25540022	          0.22225788	          0.68349267	          0.42485345	          0.61627636	          0.26857559	          0.73463637	          0.53668271	          0.15751813	          0.44918438	          0.20214965	          0.69494641	
